<?xml version="1.0" standalone="no"?>
<!DOCTYPE svg PUBLIC "-//W3C//DTD SVG 20010904//EN"
 "http://www.w3.org/TR/2001/REC-SVG-20010904/DTD/svg10.dtd">
<svg version="1.0" xmlns="http://www.w3.org/2000/svg"
 width="1400.000000pt" height="1400.000000pt" viewBox="0 0 1400.000000 1400.000000"
 preserveAspectRatio="xMidYMid meet">
<metadata>
Created by potrace 1.14, written by Peter Selinger 2001-2017
</metadata>
<g transform="translate(0.000000,1400.000000) scale(0.100000,-0.100000)"
fill="#000000" stroke="none">
<path d="M9560 12010 c-378 -53 -701 -197 -968 -432 -224 -196 -408 -475 -504
-760 -76 -229 -80 -263 -87 -727 l-6 -415 -1845 -1419 c-1015 -780 -2619
-2014 -3566 -2742 -990 -762 -1742 -1347 -1771 -1378 -53 -58 -109 -158 -139
-247 -27 -78 -27 -282 0 -360 79 -232 255 -395 482 -446 146 -32 312 -6 446
69 35 20 402 297 816 617 l754 580 1326 0 1327 -1 455 -1107 c250 -609 472
-1141 492 -1182 90 -183 287 -291 479 -263 102 15 175 45 244 100 141 115 209
294 176 464 -8 37 -173 451 -403 1008 -215 520 -393 954 -395 964 -5 16 19 17
432 15 l437 -3 473 -1149 c327 -793 485 -1166 512 -1205 106 -154 304 -230
494 -187 247 55 413 301 369 545 -7 42 -159 422 -436 1094 -233 567 -423 1036
-420 1042 2 5 35 19 72 29 185 51 479 174 695 291 158 86 433 268 572 380 458
368 805 806 1061 1337 203 419 314 821 367 1328 7 63 13 442 16 937 l5 833 37
9 c20 6 383 96 806 202 460 115 791 202 823 217 104 50 163 143 170 267 3 72
0 90 -33 184 -72 205 -156 341 -304 495 -174 179 -382 295 -641 358 -80 20
-119 22 -674 25 l-589 4 -106 107 c-258 261 -561 425 -920 498 -139 28 -413
40 -531 24z m298 -1285 c222 -52 372 -242 372 -470 0 -229 -168 -424 -401
-466 -216 -39 -445 97 -521 309 -29 79 -35 200 -14 282 42 166 183 303 352
344 77 19 135 19 212 1z"/>
</g>
</svg>
